{"asset":{"version":"2.0","generator":"Blockbench 4.12.6 glTF exporter"},"scenes":[{"nodes":[3],"name":"blockbench_export"}],"scene":0,"nodes":[{"translation":[0,1.3125,0],"name":"Paredes","mesh":0},{"translation":[4.5,1.6875,3.5625],"name":"Pilar1","mesh":1},{"translation":[0,6.5625,0],"name":"Telhado","mesh":2},{"children":[0,1,2]}],"bufferViews":[{"buffer":0,"byteOffset":0,"byteLength":432,"target":34962,"byteStride":12},{"buffer":0,"byteOffset":432,"byteLength":432,"target":34962,"byteStride":12},{"buffer":0,"byteOffset":864,"byteLength":288,"target":34962,"byteStride":8},{"buffer":0,"byteOffset":1152,"byteLength":108,"target":34963},{"buffer":0,"byteOffset":1260,"byteLength":1152,"target":34962,"byteStride":12},{"buffer":0,"byteOffset":2412,"byteLength":1152,"target":34962,"byteStride":12},{"buffer":0,"byteOffset":3564,"byteLength":768,"target":34962,"byteStride":8},{"buffer":0,"byteOffset":4332,"byteLength":288,"target":34963},{"buffer":0,"byteOffset":4620,"byteLength":672,"target":34962,"byteStride":12},{"buffer":0,"byteOffset":5292,"byteLength":672,"target":34962,"byteStride":12},{"buffer":0,"byteOffset":5964,"byteLength":448,"target":34962,"byteStride":8},{"buffer":0,"byteOffset":6412,"byteLength":168,"target":34963}],"buffers":[{"byteLength":6580,"uri":"data:application/octet-stream;base64,"}],"accessors":[{"bufferView":0,"componentType":5126,"count":36,"max":[4.5,4.3125,3.5625],"min":[-4.5,-1.3125,-3.5625],"type":"VEC3"},{"bufferView":1,"componentType":5126,"count":36,"max":[1,0.8574929237365723,1],"min":[-1,-1,-1],"type":"VEC3"},{"bufferView":2,"componentType":5126,"count":36,"max":[0.7578125,0.671875],"min":[0,0],"type":"VEC2"},{"bufferView":3,"componentType":5123,"count":54,"max":[35],"min":[0],"type":"SCALAR"},{"bufferView":4,"componentType":5126,"count":96,"max":[0.1875,3.5625,0.1875],"min":[-9.1875,-1.6875,-7.5],"type":"VEC3"},{"bufferView":5,"componentType":5126,"count":96,"max":[1,1,1],"min":[-1,-1,-1],"type":"VEC3"},{"bufferView":6,"componentType":5126,"count":96,"max":[0.5,0.890625],"min":[0,0],"type":"VEC2"},{"bufferView":7,"componentType":5123,"count":144,"max":[95],"min":[0],"type":"SCALAR"},{"bufferView":8,"componentType":5126,"count":56,"max":[5.754200458526611,-0.6046143770217896,4.03125],"min":[-5.754200458526611,-2.0627567768096924,-4.03125],"type":"VEC3"},{"bufferView":9,"componentType":5126,"count":56,"max":[0.8870111703872681,1,1],"min":[-0.8870111703872681,-1,-1],"type":"VEC3"},{"bufferView":10,"componentType":5126,"count":56,"max":[0.7631961107254028,0.6953125],"min":[0,0],"type":"VEC2"},{"bufferView":11,"componentType":5123,"count":84,"max":[55],"min":[0],"type":"SCALAR"}],"materials":[{"pbrMetallicRoughness":{"metallicFactor":0,"roughnessFactor":1,"baseColorTexture":{"index":0}},"alphaMode":"MASK","alphaCutoff":0.05,"doubleSided":true},{"pbrMetallicRoughness":{"metallicFactor":0,"roughnessFactor":1,"baseColorTexture":{"index":1}},"alphaMode":"MASK","alphaCutoff":0.05,"doubleSided":true},{"pbrMetallicRoughness":{"metallicFactor":0,"roughnessFactor":1,"baseColorTexture":{"index":2}},"alphaMode":"MASK","alphaCutoff":0.05,"doubleSided":true}],"textures":[{"sampler":0,"source":0,"name":"paredes.png"},{"sampler":1,"source":1,"name":"pilares.png"},{"sampler":2,"source":2,"name":"telhado.png"}],"samplers":[{"magFilter":9728,"minFilter":9728,"wrapS":33071,"wrapT":33071},{"magFilter":9728,"minFilter":9728,"wrapS":33071,"wrapT":33071},{"magFilter":9728,"minFilter":9728,"wrapS":33071,"wrapT":33071}],"images":[{"mimeType":"image/png","uri":"data:image/png;base64,"},{"mimeType":"image/png","uri":"data:image/png;base64,"},{"mimeType":"image/png","uri":"data:image/png;base64,"}],"meshes":[{"primitives":[{"mode":4,"attributes":{"POSITION":0,"NORMAL":1,"TEXCOORD_0":2},"indices":3,"material":0}]},{"primitives":[{"mode":4,"attributes":{"POSITION":4,"NORMAL":5,"TEXCOORD_0":6},"indices":7,"material":1}]},{"primitives":[{"mode":4,"attributes":{"POSITION":8,"NORMAL":9,"TEXCOORD_0":10},"indices":11,"material":2}]}]}