{"asset":{"version":"2.0","generator":"Blockbench 4.12.6 glTF exporter"},"scenes":[{"nodes":[8],"name":"blockbench_export"}],"scene":0,"nodes":[{"translation":[0,2.875,0],"name":"cuboid","mesh":0},{"translation":[1.75,6,0],"name":"cuboid","mesh":1},{"translation":[0,7,0],"name":"cuboid","mesh":2},{"translation":[-1.75,6,0],"name":"cuboid","mesh":3},{"name":"Telhado","children":[1,2,3]},{"translation":[3.3125,0.625,-3.875],"name":"cuboid","mesh":4},{"translation":[3.1875,4.125,-3.875],"name":"cuboid","mesh":5},{"translation":[0,-0.3125,3.125],"name":"Tijolo","children":[5,6]},{"children":[0,4,7]}],"bufferViews":[{"buffer":0,"byteOffset":0,"byteLength":480,"target":34962,"byteStride":12},{"buffer":0,"byteOffset":480,"byteLength":480,"target":34962,"byteStride":12},{"buffer":0,"byteOffset":960,"byteLength":320,"target":34962,"byteStride":8},{"buffer":0,"byteOffset":1280,"byteLength":120,"target":34963},{"buffer":0,"byteOffset":1400,"byteLength":240,"target":34962,"byteStride":12},{"buffer":0,"byteOffset":1640,"byteLength":240,"target":34962,"byteStride":12},{"buffer":0,"byteOffset":1880,"byteLength":160,"target":34962,"byteStride":8},{"buffer":0,"byteOffset":2040,"byteLength":60,"target":34963},{"buffer":0,"byteOffset":2100,"byteLength":288,"target":34962,"byteStride":12},{"buffer":0,"byteOffset":2388,"byteLength":288,"target":34962,"byteStride":12},{"buffer":0,"byteOffset":2676,"byteLength":192,"target":34962,"byteStride":8},{"buffer":0,"byteOffset":2868,"byteLength":72,"target":34963},{"buffer":0,"byteOffset":2940,"byteLength":240,"target":34962,"byteStride":12},{"buffer":0,"byteOffset":3180,"byteLength":240,"target":34962,"byteStride":12},{"buffer":0,"byteOffset":3420,"byteLength":160,"target":34962,"byteStride":8},{"buffer":0,"byteOffset":3580,"byteLength":60,"target":34963},{"buffer":0,"byteOffset":3640,"byteLength":288,"target":34962,"byteStride":12},{"buffer":0,"byteOffset":3928,"byteLength":288,"target":34962,"byteStride":12},{"buffer":0,"byteOffset":4216,"byteLength":192,"target":34962,"byteStride":8},{"buffer":0,"byteOffset":4408,"byteLength":72,"target":34963},{"buffer":0,"byteOffset":4480,"byteLength":288,"target":34962,"byteStride":12},{"buffer":0,"byteOffset":4768,"byteLength":288,"target":34962,"byteStride":12},{"buffer":0,"byteOffset":5056,"byteLength":192,"target":34962,"byteStride":8},{"buffer":0,"byteOffset":5248,"byteLength":72,"target":34963}],"buffers":[{"byteLength":5320,"uri":"data:application/octet-stream;base64,"}],"accessors":[{"bufferView":0,"componentType":5126,"count":40,"max":[2.9375,4.3125,2.125],"min":[-2.9375,-2.875,-2.125],"type":"VEC3"},{"bufferView":1,"componentType":5126,"count":40,"max":[1,1,1],"min":[-1,-1,-1],"type":"VEC3"},{"bufferView":2,"componentType":5126,"count":40,"max":[0.546875,0.439453125],"min":[0,0],"type":"VEC2"},{"bufferView":3,"componentType":5123,"count":60,"max":[39],"min":[0],"type":"SCALAR"},{"bufferView":4,"componentType":5126,"count":20,"max":[2.0464062690734863,1.4916143417358398,2.6875],"min":[-1.7777562141418457,-1.0699187517166138,-2.6875],"type":"VEC3"},{"bufferView":5,"componentType":5126,"count":20,"max":[0.8433908224105835,0.843391478061676,1],"min":[-0.5372995734214783,-0.843391478061676,-1],"type":"VEC3"},{"bufferView":6,"componentType":5126,"count":20,"max":[0.421875,0.8828125],"min":[0,0],"type":"VEC2"},{"bufferView":7,"componentType":5123,"count":30,"max":[19],"min":[0],"type":"SCALAR"},{"bufferView":8,"componentType":5126,"count":24,"max":[0.3125,0.5,2.8125],"min":[-0.3125,0,-2.8125],"type":"VEC3"},{"bufferView":9,"componentType":5126,"count":24,"max":[1,1,1],"min":[-1,-1,-1],"type":"VEC3"},{"bufferView":10,"componentType":5126,"count":24,"max":[0.79296875,0.90625],"min":[0,0.5546875],"type":"VEC2"},{"bufferView":11,"componentType":5123,"count":36,"max":[23],"min":[0],"type":"SCALAR"},{"bufferView":12,"componentType":5126,"count":20,"max":[1.7777562141418457,1.4916143417358398,2.6875],"min":[-2.0464062690734863,-1.0699187517166138,-2.6875],"type":"VEC3"},{"bufferView":13,"componentType":5126,"count":20,"max":[0.5372995734214783,0.843391478061676,1],"min":[-0.8433908224105835,-0.843391478061676,-1],"type":"VEC3"},{"bufferView":14,"componentType":5126,"count":20,"max":[0.76171875,0.90234375],"min":[0.10546875,0],"type":"VEC2"},{"bufferView":15,"componentType":5123,"count":30,"max":[19],"min":[0],"type":"SCALAR"},{"bufferView":16,"componentType":5126,"count":24,"max":[0.375,1.3125,0.875],"min":[-0.375,-0.3125,-0.875],"type":"VEC3"},{"bufferView":17,"componentType":5126,"count":24,"max":[1,1,1],"min":[-1,-1,-1],"type":"VEC3"},{"bufferView":18,"componentType":5126,"count":24,"max":[0.26953125,0.32421875],"min":[0.08984375,0],"type":"VEC2"},{"bufferView":19,"componentType":5123,"count":36,"max":[23],"min":[0],"type":"SCALAR"},{"bufferView":20,"componentType":5126,"count":24,"max":[0.25,3.1875,0.375],"min":[-0.25,-2.1875,-0.375],"type":"VEC3"},{"bufferView":21,"componentType":5126,"count":24,"max":[1,1,1],"min":[-1,-1,-1],"type":"VEC3"},{"bufferView":22,"componentType":5126,"count":24,"max":[0.296875,0.5546875],"min":[0,0],"type":"VEC2"},{"bufferView":23,"componentType":5123,"count":36,"max":[23],"min":[0],"type":"SCALAR"}],"materials":[{"pbrMetallicRoughness":{"metallicFactor":0,"roughnessFactor":1,"baseColorTexture":{"index":0}},"alphaMode":"MASK","alphaCutoff":0.05,"doubleSided":true},{"pbrMetallicRoughness":{"metallicFactor":0,"roughnessFactor":1,"baseColorTexture":{"index":1}},"alphaMode":"MASK","alphaCutoff":0.05,"doubleSided":true},{"pbrMetallicRoughness":{"metallicFactor":0,"roughnessFactor":1,"baseColorTexture":{"index":2}},"alphaMode":"MASK","alphaCutoff":0.05,"doubleSided":true}],"textures":[{"sampler":0,"source":0,"name":"paredes.png"},{"sampler":1,"source":1,"name":"telhado.png"},{"sampler":2,"source":2,"name":"tijolo"}],"samplers":[{"magFilter":9728,"minFilter":9728,"wrapS":33071,"wrapT":33071},{"magFilter":9728,"minFilter":9728,"wrapS":33071,"wrapT":33071},{"magFilter":9728,"minFilter":9728,"wrapS":33071,"wrapT":33071}],"images":[{"mimeType":"image/png","uri":"data:image/png;base64,"},{"mimeType":"image/png","uri":"data:image/png;base64,"},{"mimeType":"image/png","uri":"data:image/png;base64,"}],"meshes":[{"primitives":[{"mode":4,"attributes":{"POSITION":0,"NORMAL":1,"TEXCOORD_0":2},"indices":3,"material":0}]},{"primitives":[{"mode":4,"attributes":{"POSITION":4,"NORMAL":5,"TEXCOORD_0":6},"indices":7,"material":1}]},{"primitives":[{"mode":4,"attributes":{"POSITION":8,"NORMAL":9,"TEXCOORD_0":10},"indices":11,"material":1}]},{"primitives":[{"mode":4,"attributes":{"POSITION":12,"NORMAL":13,"TEXCOORD_0":14},"indices":15,"material":1}]},{"primitives":[{"mode":4,"attributes":{"POSITION":16,"NORMAL":17,"TEXCOORD_0":18},"indices":19,"material":2}]},{"primitives":[{"mode":4,"attributes":{"POSITION":20,"NORMAL":21,"TEXCOORD_0":22},"indices":23,"material":2}]}]}